<svg xmlns="http://www.w3.org/2000/svg" version="1.0" width="700.000000pt" height="700.000000pt" viewBox="0 0 700.000000 700.000000" preserveAspectRatio="xMidYMid meet">
<metadata>
Created by potrace 1.11, written by Peter Selinger 2001-2013
</metadata>
<g transform="translate(0.000000,700.000000) scale(0.100000,-0.100000)" fill="#000000" stroke="none">
<path d="M3298 6995 c-3 -3 -128 -13 -168 -15 -13 0 -15 -341 -14 -3011 l1 -3011 -29 29 c-137 137 -326 430 -408 633 -12 30 -28 69 -35 85 -89 204 -201 594 -240 835 -2 14 -7 36 -10 50 -6 26 -40 279 -49 365 -16 147 -22 260 -26 448 l-2 97 -382 -2 -381 -3 1 -70 c1 -86 13 -363 19 -425 2 -25 7 -77 10 -117 3 -40 8 -82 10 -94 3 -12 7 -43 10 -68 12 -103 27 -201 60 -386 55 -305 192 -744 322 -1030 28 -60 49 -112 47 -113 -5 -7 -129 82 -244 174 -428 344 -733 788 -900 1311 -22 69 -42 135 -44 147 -3 12 -14 66 -26 121 -11 55 -23 125 -26 155 -4 30 -9 73 -13 95 -21 114 -18 516 3 645 3 14 10 59 16 100 46 288 144 582 282 840 132 248 276 440 492 655 213 212 420 364 674 495 l107 55 1 405 c0 223 -1 408 -3 411 -5 10 -231 -80 -368 -147 -143 -69 -326 -174 -450 -258 -49 -33 -92 -63 -95 -66 -3 -3 -43 -34 -90 -70 -47 -36 -92 -72 -101 -80 -8 -8 -31 -28 -50 -43 -46 -38 -199 -187 -283 -278 -164 -176 -358 -446 -478 -664 -50 -91 -148 -290 -148 -300 0 -3 -11 -28 -24 -57 -44 -98 -89 -232 -149 -438 -18 -64 -63 -275 -72 -340 -3 -25 -8 -56 -11 -70 -18 -95 -29 -276 -28 -500 0 -240 11 -385 40 -555 3 -16 7 -39 9 -50 17 -122 104 -454 144 -550 5 -11 25 -65 46 -120 49 -129 174 -383 250 -508 33 -54 65 -106 70 -115 50 -86 256 -352 349 -451 103 -110 264 -262 357 -338 111 -92 305 -233 319 -233 6 0 10 -3 10 -7 0 -5 10 -13 23 -19 12 -6 51 -29 87 -51 243 -149 685 -334 900 -378 8 -2 53 -12 100 -24 110 -26 235 -49 313 -57 34 -3 65 -8 69 -10 40 -25 762 -24 786 1 3 3 5 1357 5 3010 l0 3005 42 -42 c307 -316 574 -940 680 -1590 3 -18 7 -44 10 -58 2 -14 7 -45 10 -70 6 -46 15 -113 20 -140 2 -8 6 -51 9 -95 4 -44 9 -103 12 -132 7 -65 13 -199 13 -320 l1 -93 384 0 383 0 -3 103 c-3 111 -13 318 -18 382 -2 22 -7 80 -11 130 -4 49 -8 92 -10 96 -2 3 -6 34 -9 70 -4 35 -8 75 -11 89 -3 14 -7 39 -9 55 -8 47 -35 207 -41 235 -3 14 -8 39 -10 55 -3 17 -15 68 -26 115 -12 47 -22 92 -24 100 -38 183 -179 591 -278 803 -32 66 -34 76 -17 67 93 -50 316 -228 444 -356 309 -307 525 -650 663 -1049 35 -100 89 -299 100 -365 3 -19 6 -39 7 -45 43 -191 53 -591 21 -830 -22 -159 -54 -310 -96 -449 -161 -523 -456 -960 -902 -1333 -129 -108 -326 -234 -522 -333 l-50 -25 0 -408 -1 -408 26 6 c54 14 252 97 380 160 383 190 679 408 990 730 38 39 85 90 105 115 21 25 40 47 44 50 12 9 136 172 193 255 109 157 241 392 312 555 16 36 36 83 46 105 19 44 76 202 109 305 23 73 74 283 90 375 6 33 13 71 16 84 2 13 7 49 11 80 3 31 8 65 10 76 34 168 22 732 -21 965 -2 8 -10 56 -20 105 -85 460 -285 935 -560 1330 -510 733 -1288 1249 -2152 1430 -99 20 -247 43 -393 60 -55 7 -526 15 -532 10z"/>
</g>
</svg>